<mxfile host="65bd71144e">
    <diagram id="xUXI-BimEUcDRo-Q5bj4" name="第 1 页">
        <mxGraphModel dx="631" dy="787" grid="1" gridSize="10" guides="1" tooltips="1" connect="1" arrows="1" fold="1" page="1" pageScale="1" pageWidth="827" pageHeight="1169" math="0" shadow="0">
            <root>
                <mxCell id="0"/>
                <mxCell id="1" parent="0"/>
                <mxCell id="19" value="Customers(客戶信息表)" style="swimlane;childLayout=stackLayout;horizontal=1;startSize=50;horizontalStack=0;rounded=1;fontSize=14;fontStyle=0;strokeWidth=2;resizeParent=0;resizeLast=1;shadow=0;dashed=0;align=center;arcSize=4;whiteSpace=wrap;html=1;" parent="1" vertex="1">
                    <mxGeometry x="80" y="190" width="210" height="230" as="geometry"/>
                </mxCell>
                <mxCell id="20" value="CustomerID : integer(PK,AI)&lt;div&gt;Name : varchar(50)(NN)&lt;/div&gt;&lt;div&gt;Gender : smallint&lt;/div&gt;&lt;div&gt;BirthDate : date(NN)&lt;/div&gt;&lt;div&gt;IDType : smallint&lt;/div&gt;&lt;div&gt;IDNumber : varchar(200)&lt;/div&gt;&lt;div&gt;Address : varchar(200)&lt;/div&gt;&lt;div&gt;Phone : varchar(20)&lt;/div&gt;&lt;div&gt;Email : varchar(100)&lt;/div&gt;&lt;div&gt;KYCStatus : smallint(NN,DF=0)&lt;/div&gt;&lt;div&gt;CreateAt : timestamp(NN,DF=now())&lt;/div&gt;" style="align=left;strokeColor=none;fillColor=none;spacingLeft=4;fontSize=12;verticalAlign=top;resizable=0;rotatable=0;part=1;html=1;" parent="19" vertex="1">
                    <mxGeometry y="50" width="210" height="180" as="geometry"/>
                </mxCell>
                <mxCell id="21" value="CustomerAuth(客戶認證信息表)" style="swimlane;childLayout=stackLayout;horizontal=1;startSize=50;horizontalStack=0;rounded=1;fontSize=14;fontStyle=0;strokeWidth=2;resizeParent=0;resizeLast=1;shadow=0;dashed=0;align=center;arcSize=4;whiteSpace=wrap;html=1;" parent="1" vertex="1">
                    <mxGeometry x="380" y="140" width="230" height="120" as="geometry"/>
                </mxCell>
                <mxCell id="22" value="CustomerID : integer(FK, PK,AI)&lt;div&gt;LoginID : varchar(50)(UK, NN)&lt;/div&gt;&lt;div&gt;PasswordHash : varchar(255)(NN)&lt;/div&gt;&lt;div&gt;TwoFactorEnable : boolean(NN,DF=false)&lt;/div&gt;" style="align=left;strokeColor=none;fillColor=none;spacingLeft=4;fontSize=12;verticalAlign=top;resizable=0;rotatable=0;part=1;html=1;" parent="21" vertex="1">
                    <mxGeometry y="50" width="230" height="70" as="geometry"/>
                </mxCell>
                <mxCell id="23" value="" style="edgeStyle=entityRelationEdgeStyle;fontSize=12;html=1;endArrow=ERmandOne;startArrow=ERmandOne;exitX=0.994;exitY=0.094;exitDx=0;exitDy=0;exitPerimeter=0;entryX=0.025;entryY=0.143;entryDx=0;entryDy=0;entryPerimeter=0;" parent="1" source="20" target="22" edge="1">
                    <mxGeometry width="100" height="100" relative="1" as="geometry">
                        <mxPoint x="170" y="370" as="sourcePoint"/>
                        <mxPoint x="270" y="270" as="targetPoint"/>
                    </mxGeometry>
                </mxCell>
                <mxCell id="24" value="" style="edgeStyle=entityRelationEdgeStyle;fontSize=12;html=1;endArrow=ERoneToMany;exitX=0.994;exitY=0.094;exitDx=0;exitDy=0;exitPerimeter=0;" parent="1" source="20" edge="1">
                    <mxGeometry width="100" height="100" relative="1" as="geometry">
                        <mxPoint x="279.99999999999994" y="254.96000000000004" as="sourcePoint"/>
                        <mxPoint x="377.92" y="450" as="targetPoint"/>
                        <Array as="points">
                            <mxPoint x="297.92" y="197"/>
                        </Array>
                    </mxGeometry>
                </mxCell>
                <mxCell id="25" value="Accounts" style="ellipse;whiteSpace=wrap;html=1;align=center;" parent="1" vertex="1">
                    <mxGeometry x="380" y="430" width="130" height="40" as="geometry"/>
                </mxCell>
            </root>
        </mxGraphModel>
    </diagram>
</mxfile>